<svg xmlns="http://www.w3.org/2000/svg" viewBox="0 0 209.902 226.418">
  <path d="M36.71 44.903c-14.116 0-31.51 62.965-36.685 163.54v16.506c0 25.594 21.149 46.372 47.199 46.372h115.504c26.05 0 47.2-20.778 47.2-46.372v-16.507c-5.176-100.574-22.57-163.539-36.685-163.539-7.373 0-21.861 19.829-26.467 41.55-12.866-1.386-27.257-2.401-41.8-2.401-14.543 0-28.934 1.015-41.799 2.4-4.606-21.72-19.095-41.549-26.468-41.549Zm1.504 21.662c4.74-.03 9.556 20.614 9.59 20.677.035.064-11.729 2.607-18.634 5.56 0 0 2.141-24.748 8.703-26.199.114-.025.227-.037.341-.038zm131.698 0c.114 0 .228.013.341.038 6.562 1.451 8.704 26.2 8.704 26.2-6.906-2.954-18.67-5.497-18.634-5.561.033-.063 4.85-20.707 9.59-20.677zm-99.09 45.952c4.374.044 8.64 1.333 12.258 3.977 10.069 7.359 11.341 22.449 2.84 33.678-8.502 11.228-23.579 14.371-33.648 7.013-10.069-7.359-11.34-22.45-2.84-33.678 5.447-7.194 13.592-11.069 21.39-10.99zm67.133 0c7.798-.079 15.942 3.796 21.389 10.99 8.501 11.229 7.23 26.32-2.84 33.678-10.069 7.358-25.145 4.215-33.647-7.013-8.501-11.23-7.23-26.32 2.84-33.678 3.618-2.644 7.883-3.933 12.258-3.977zm-66.237 7.779a15.284 15.016 0 0 0-15.284 15.016 15.284 15.016 0 0 0 15.284 15.016 15.284 15.016 0 0 0 15.284-15.016 15.284 15.016 0 0 0-15.284-15.017Zm65.34 0a15.284 15.016 0 0 0-15.285 15.016 15.284 15.016 0 0 0 15.285 15.016 15.284 15.016 0 0 0 15.284-15.016 15.284 15.016 0 0 0-15.284-15.017zm-32.67 24.854c2.883 0 5.222 1.199 5.222 2.676 0 .613-2.073 2.79-4.16 3.413.072 1.043.234 2.26.576 3.466.444 1.571 1.183 3.084 2.343 4.18 1.16 1.096 2.734 1.834 5.131 1.834 3.735 0 4.915-1.398 5.482-2.795.568-1.398.329-2.864.329-2.864a1.01 1.01 0 0 1 .814-1.173 1.01 1.01 0 0 1 1.174.814s.378 1.958-.445 3.984c-.824 2.027-3.046 4.053-7.354 4.053-2.832 0-5.002-.95-6.52-2.384-1.25-1.182-2.06-2.653-2.593-4.142-.532 1.49-1.342 2.96-2.592 4.142-1.518 1.434-3.688 2.384-6.52 2.384-4.307 0-6.53-2.026-7.353-4.053-.824-2.026-.444-3.984-.444-3.984a1.01 1.01 0 0 1 1.174-.814 1.01 1.01 0 0 1 .815 1.173s-.242 1.466.326 2.864c.568 1.397 1.748 2.795 5.482 2.795 2.398 0 3.974-.738 5.133-1.834 1.16-1.096 1.897-2.609 2.342-4.18.346-1.222.508-2.455.578-3.508-1.897-.667-4.162-2.738-4.162-3.37 0-1.478 2.34-2.677 5.222-2.677zM72.24 180.26a2.574 2.574 0 0 1 1.646.573l23.779 19.303a3.726 3.726 0 0 1 1.387 2.9 3.727 3.727 0 0 1-1.398 2.897L73.51 225.38a2.578 2.578 0 0 1-3.634-.41l-1.464-1.87a2.473 2.473 0 0 1 .421-3.475l20.975-16.598-20.727-16.291a2.473 2.473 0 0 1-.422-3.487l1.591-2.018a2.56 2.56 0 0 1 1.99-.97zm35.564 48.708h32.045c.676 0 1.324.264 1.802.733a2.48 2.48 0 0 1 .746 1.77v1.751c0 .664-.269 1.301-.746 1.77a2.571 2.571 0 0 1-1.802.733h-32.045a2.571 2.571 0 0 1-1.802-.733 2.481 2.481 0 0 1-.745-1.77v-1.751c0-.664.268-1.3.745-1.77a2.571 2.571 0 0 1 1.802-.733z" style="clip-rule:evenodd;fill:#b4befe;fill-opacity:1;fill-rule:evenodd;stroke-width:.252494;stroke-linecap:round;stroke-linejoin:round;stroke-miterlimit:1.5" transform="translate(-.025 -44.903)"/>
</svg>
