<?xml version="1.0" encoding="UTF-8" standalone="no"?>
<!-- Created with Inkscape (http://www.inkscape.org/) -->

<svg
   width="210mm"
   height="297mm"
   viewBox="0 0 210 297"
   version="1.1"
   id="svg6463"
   inkscape:version="1.2.2 (732a01da63, 2022-12-09)"
   sodipodi:docname="catppuccin-catppuccin.svg"
   xmlns:inkscape="http://www.inkscape.org/namespaces/inkscape"
   xmlns:sodipodi="http://sodipodi.sourceforge.net/DTD/sodipodi-0.dtd"
   xmlns="http://www.w3.org/2000/svg"
   xmlns:svg="http://www.w3.org/2000/svg">
  <sodipodi:namedview
     id="namedview6465"
     pagecolor="#505050"
     bordercolor="#eeeeee"
     borderopacity="1"
     inkscape:showpageshadow="0"
     inkscape:pageopacity="0"
     inkscape:pagecheckerboard="0"
     inkscape:deskcolor="#505050"
     inkscape:document-units="mm"
     showgrid="false"
     inkscape:zoom="0.78127806"
     inkscape:cx="192.63308"
     inkscape:cy="1381.0704"
     inkscape:window-width="2560"
     inkscape:window-height="1057"
     inkscape:window-x="1912"
     inkscape:window-y="-8"
     inkscape:window-maximized="1"
     inkscape:current-layer="layer1" />
  <defs
     id="defs6460" />
  <g
     inkscape:label="Layer 1"
     inkscape:groupmode="layer"
     id="layer1">
    <path
       id="path5201-8-8-2-6-7"
       style="clip-rule:evenodd;fill:#b4befe;fill-opacity:1;fill-rule:evenodd;stroke-width:0.252494;stroke-linecap:round;stroke-linejoin:round;stroke-miterlimit:1.5"
       d="M 36.709387 44.903202 C 22.593731 44.903202 5.199757 107.86843 0.024804687 208.44206 L 0.024804687 224.94906 C 0.024804687 250.54251 21.173979 271.32142 47.223991 271.32142 L 162.72805 271.32142 C 188.7781 271.32142 209.92724 250.54251 209.92724 224.94906 L 209.92724 208.44206 C 204.75228 107.86843 187.35884 44.903202 173.24317 44.903202 C 165.87011 44.903202 151.38192 64.731584 146.77554 86.452604 C 133.91014 85.067344 119.51863 84.051717 104.97602 84.051717 C 90.433434 84.051717 76.042437 85.067344 63.177022 86.452604 C 58.570641 64.731584 44.082452 44.903202 36.709387 44.903202 z M 38.214205 66.564929 C 42.953699 66.534751 47.770484 87.178634 47.804317 87.241703 C 47.838967 87.306473 36.075421 89.848674 29.170312 92.802604 C 29.170312 92.802604 31.311163 68.054239 37.87314 66.60317 C 37.986733 66.578059 38.100457 66.565653 38.214205 66.564929 z M 169.91211 66.564929 C 170.02586 66.565653 170.13958 66.578059 170.25317 66.60317 C 176.81517 68.054239 178.95652 92.802604 178.95652 92.802604 C 172.0514 89.848674 160.28791 87.306473 160.32251 87.241703 C 160.35634 87.178634 165.17261 66.534751 169.91211 66.564929 z M 70.821517 112.51716 C 75.195955 112.56134 79.461167 113.84972 83.079683 116.49418 C 93.148601 123.85261 94.421355 138.94282 85.91982 150.17171 C 77.418289 161.40036 62.341177 164.54316 52.272262 157.18472 C 42.203344 149.82626 40.931109 134.73556 49.432642 123.50667 C 54.878935 116.31333 63.023608 112.43841 70.821517 112.51716 z M 137.95489 112.51716 C 145.75279 112.43841 153.89748 116.31333 159.34376 123.50667 C 167.84528 134.73556 166.57305 149.82626 156.50414 157.18472 C 146.43522 164.54316 131.35863 161.40036 122.8571 150.17171 C 114.35557 138.94282 115.62781 123.85261 125.69672 116.49418 C 129.31525 113.84972 133.58044 112.56134 137.95489 112.51716 z M 71.718103 120.2955 A 15.284159 15.016283 0 0 0 56.433765 135.31215 A 15.284159 15.016283 0 0 0 71.718103 150.32829 A 15.284159 15.016283 0 0 0 87.001925 135.31215 A 15.284159 15.016283 0 0 0 71.718103 120.2955 z M 137.05778 120.2955 A 15.284159 15.016283 0 0 0 121.77345 135.31215 A 15.284159 15.016283 0 0 0 137.05778 150.32829 A 15.284159 15.016283 0 0 0 152.34161 135.31215 A 15.284159 15.016283 0 0 0 137.05778 120.2955 z M 104.38846 145.1498 C 107.2708 145.1498 109.61036 146.34902 109.61036 147.82612 C 109.61036 148.43853 107.53721 150.61621 105.45093 151.23883 C 105.52225 152.28233 105.68428 153.49934 106.02557 154.70529 C 106.47012 156.27606 107.20943 157.78874 108.3691 158.88488 C 109.52874 159.98098 111.10253 160.71887 113.50005 160.71887 C 117.23454 160.71887 118.41463 159.32106 118.9824 157.92369 C 119.55017 156.52635 119.31055 155.0603 119.31055 155.0603 A 1.00998 1.00998 0 0 1 120.12497 153.88673 A 1.00998 1.00998 0 0 1 121.29906 154.70115 C 121.29906 154.70115 121.67685 156.65921 120.85361 158.6854 C 120.03033 160.71162 117.80778 162.73839 113.50005 162.73839 C 110.6681 162.73839 108.49808 161.7879 106.98055 160.35352 C 105.73035 159.17182 104.91975 157.70137 104.38743 156.21165 C 103.8551 157.70132 103.04498 159.17186 101.79482 160.35352 C 100.27729 161.7879 98.10726 162.73839 95.275321 162.73839 C 90.967573 162.73839 88.745041 160.71162 87.921765 158.6854 C 87.098489 156.65921 87.478381 154.70115 87.478381 154.70115 A 1.00998 1.00998 0 0 1 88.65247 153.88673 A 1.00998 1.00998 0 0 1 89.46689 155.0603 C 89.46689 155.0603 89.2252 156.52635 89.792969 157.92369 C 90.360735 159.32106 91.540834 160.71887 95.275321 160.71887 C 97.672837 160.71887 99.248679 159.98098 100.40834 158.88488 C 101.56802 157.78874 102.30525 156.27606 102.7498 154.70529 C 103.09575 153.48287 103.25792 152.24984 103.32806 151.19697 C 101.43136 150.52953 99.16604 148.45868 99.16604 147.82612 C 99.16604 146.34902 101.50613 145.1498 104.38846 145.1498 z M 72.240035 180.26135 C 72.837639 180.25584 73.421268 180.45713 73.886446 180.83444 C 78.806657 184.82853 91.438347 195.08217 97.66484 200.13662 C 98.54546 200.85115 99.054952 201.91552 99.052352 203.03774 C 99.050315 204.15994 98.537409 205.22241 97.653988 205.93368 C 91.350309 211.01118 78.489294 221.3697 73.510242 225.38004 C 72.977077 225.80952 72.290179 226.00853 71.605448 225.93143 C 70.920465 225.8541 70.296668 225.50758 69.876355 224.97076 C 69.401015 224.3636 68.881832 223.70072 68.411845 223.10059 C 67.567655 222.02219 67.754458 220.47877 68.833008 219.62535 C 74.362545 215.24937 89.807955 203.02688 89.807955 203.02688 C 89.807955 203.02688 74.587919 191.06431 69.081055 186.73589 C 67.994353 185.88196 67.806514 184.32944 68.658858 183.24876 C 69.168077 182.60332 69.735927 181.88302 70.250492 181.2308 C 70.672846 180.69548 71.297966 180.35113 71.983203 180.27633 C 72.068826 180.26701 72.154663 180.26214 72.240035 180.26135 z M 107.80376 228.96897 L 139.84934 228.96897 C 140.52489 228.96897 141.17316 229.23299 141.65079 229.70226 C 142.12839 230.17151 142.39699 230.80795 142.39699 231.47166 L 142.39699 233.22349 C 142.39699 233.8872 142.12839 234.52415 141.65079 234.99341 C 141.17316 235.46266 140.52489 235.72618 139.84934 235.72618 L 107.80376 235.72618 C 107.12819 235.72618 106.47992 235.46266 106.00232 234.99341 C 105.5247 234.52415 105.25662 233.8872 105.25662 233.22349 L 105.25662 231.47166 C 105.25662 230.80795 105.5247 230.17151 106.00232 229.70226 C 106.47992 229.23299 107.12819 228.96897 107.80376 228.96897 z " />
  </g>
</svg>
